<?xml version="1.0" encoding="UTF-8"?>
<svg version="1.1" xmlns="http://www.w3.org/2000/svg" width="308" height="264">
<path d="M0 0 C6.36241195 -0.33464566 12.72250046 -0.55926234 19.09179688 -0.71411133 C21.24923411 -0.77876386 23.4061188 -0.86693157 25.56152344 -0.98071289 C41.69614632 -1.80995746 51.07002978 0.63711438 63.22198486 11.43643188 C65.46643087 13.41017448 67.84436573 15.14707708 70.28125 16.875 C71.68802279 17.91596053 73.09428848 18.95760678 74.5 20 C80.6394239 24.53849797 86.8035208 29.03972909 93 33.5 C100.05761313 38.58110955 107.08292553 43.70409401 114.0637207 48.89038086 C117.85006892 51.70044711 121.65248716 54.47088663 125.53125 57.15234375 C126.58566284 57.89170166 126.58566284 57.89170166 127.66137695 58.64599609 C128.9759241 59.56502279 130.29959902 60.47118034 131.63354492 61.36181641 C134.25606613 63.21047291 135.823502 64.38933581 136.73046875 67.52734375 C135.65335375 71.17340683 133.69016802 72.2900517 130.625 74.5 C130.0470166 74.9237793 129.4690332 75.34755859 128.87353516 75.78417969 C126.92679473 77.20547927 124.96392148 78.60255826 123 80 C121.5979711 81.01426173 120.19695307 82.02992206 118.796875 83.046875 C115.78269592 85.23278665 112.76238219 87.40986978 109.73828125 89.58203125 C104.98807668 93.0002561 100.271074 96.46222791 95.5625 99.9375 C94.38288696 100.80797974 94.38288696 100.80797974 93.17944336 101.69604492 C90.78579331 103.46335124 88.39277636 105.23151099 86 107 C75.9598876 114.42059673 65.90202492 121.81196039 55.76928711 129.10571289 C49.51886133 133.61062869 43.31665782 138.17892393 37.12084961 142.75854492 C30.94355624 147.31895858 24.72961016 151.82646344 18.48828125 156.29882812 C17.8128125 156.78416016 17.13734375 157.26949219 16.44140625 157.76953125 C15.72452637 158.26348389 15.00764648 158.75743652 14.26904297 159.26635742 C11.89467149 160.98989324 11.89467149 160.98989324 9.71923828 163.3684082 C1.03916184 171.61472405 -7.73375926 171.01704009 -19.18359375 170.79101562 C-21.53909451 170.71584007 -23.89456328 170.63965584 -26.25 170.5625 C-28.65226854 170.51729341 -31.05461902 170.47623976 -33.45703125 170.43945312 C-39.30649319 170.34091098 -45.15286015 170.19085577 -51 170 C-50.31591797 165.27734375 -50.31591797 165.27734375 -47.47265625 162.78125 C-46.34544395 162.0068112 -45.20782421 161.24739245 -44.0625 160.5 C-42.77533283 159.62082855 -41.48890995 158.74056671 -40.203125 157.859375 C-39.51798828 157.39595703 -38.83285156 156.93253906 -38.12695312 156.45507812 C-34.4728636 153.95526481 -30.89603265 151.34947201 -27.3125 148.75 C-26.55775391 148.204646 -25.80300781 147.65929199 -25.02539062 147.09741211 C-16.30607522 140.79167508 -7.65341174 134.39569323 1 128 C11.0401124 120.57940327 21.09797508 113.18803961 31.23071289 105.89428711 C37.47899542 101.39091603 43.67946798 96.82470905 49.87255859 92.24584961 C55.42774567 88.14384819 61.01775196 84.09296512 66.625 80.0625 C72.51353861 75.82825172 78.34607735 71.54628283 84 67 C79.84464227 62.55434781 75.23263563 59.06340723 70.3125 55.5 C69.47525391 54.88833984 68.63800781 54.27667969 67.77539062 53.64648438 C61.45905751 49.0385509 55.11786983 44.46461351 48.77270508 39.89648438 C42.52594303 35.39495102 36.32757978 30.82976824 30.13623047 26.25244141 C23.75148258 21.53809873 17.32489681 16.88377256 10.87304688 12.26171875 C9.50958074 11.28223892 8.14959108 10.29789249 6.79394531 9.30761719 C5.2052107 8.14957928 3.59984381 7.01443552 1.9921875 5.8828125 C1.33476562 5.26148437 0.67734375 4.64015625 0 4 C0 2.68 0 1.36 0 0 Z " fill="#98CBFE" transform="translate(172,59)"/>
<path d="M0 0 C6.27 0 12.54 0 19 0 C18.32153306 6.10620243 17.6417756 10.9534358 15.72192383 16.59130859 C15.49036433 17.29503318 15.25880484 17.99875776 15.02022839 18.72380733 C14.25750535 21.03487713 13.48234101 23.34156305 12.70703125 25.6484375 C12.16325945 27.28816062 11.62030813 28.92815604 11.078125 30.56840515 C9.92888413 34.03976008 8.7742555 37.50925442 7.61514282 40.97732544 C5.79610012 46.42005539 3.9891163 51.86673893 2.18432617 57.31420898 C0.10786811 63.57967955 -1.97082398 69.84439625 -4.05315685 76.10791683 C-7.81047016 87.41136051 -11.51931685 98.72981727 -15.1875 110.0625 C-20.98834935 127.9506369 -26.86200534 145.81472364 -32.73665619 163.67871857 C-39.53165239 184.34188277 -46.32572594 205.00525974 -53.0625 225.6875 C-53.46710449 226.92826294 -53.46710449 226.92826294 -53.87988281 228.1940918 C-54.64098173 230.52880774 -55.40097758 232.86387774 -56.16015625 235.19921875 C-56.3935672 235.91697479 -56.62697815 236.63473083 -56.86746216 237.37423706 C-58.15502655 241.34771504 -59.41911859 245.32773973 -60.66357422 249.31494141 C-61.07608681 250.63423393 -61.07608681 250.63423393 -61.49693298 251.98017883 C-62.0279479 253.68239546 -62.55618844 255.38548067 -63.08131409 257.08952332 C-64.88991273 262.88991273 -64.88991273 262.88991273 -66 264 C-67.41570123 264.08651611 -68.835595 264.10704904 -70.25390625 264.09765625 C-71.10791016 264.09443359 -71.96191406 264.09121094 -72.84179688 264.08789062 C-73.73962891 264.07951172 -74.63746094 264.07113281 -75.5625 264.0625 C-76.46419922 264.05798828 -77.36589844 264.05347656 -78.29492188 264.04882812 C-80.53001314 264.03700225 -82.76497437 264.0205222 -85 264 C-84.47581492 255.87154983 -81.71276666 248.42587228 -79.14453125 240.76171875 C-78.64582529 239.25531784 -78.14780337 237.74869031 -77.65042114 236.24185181 C-76.59455995 233.04756353 -75.53422274 229.85481215 -74.47018433 226.66323853 C-72.79580484 221.64078066 -71.13147162 216.61503119 -69.46899414 211.58862305 C-67.81373186 206.58536231 -66.15801483 201.58225696 -64.498703 196.58033752 C-60.86386601 185.62289102 -57.25998212 174.65600233 -53.70223999 163.67324829 C-47.11075779 143.32537771 -40.42296734 123.00915781 -33.7406044 102.69100952 C-27.22578345 82.88228005 -20.72875746 63.0681745 -14.2880249 43.23519897 C-9.59887326 28.7985264 -4.83459863 14.38868641 0 0 Z " fill="#98CBFE" transform="translate(159,0)"/>
<path d="M0 0 C21.78 0 43.56 0 66 0 C66 1.65 66 3.3 66 5 C44.22 5 22.44 5 0 5 C0 3.35 0 1.7 0 0 Z " fill="#99CBFE" transform="translate(0,172)"/>
<path d="M0 0 C16.83 0 33.66 0 51 0 C51 1.65 51 3.3 51 5 C34.17 5 17.34 5 0 5 C0 3.35 0 1.7 0 0 Z " fill="#99CBFE" transform="translate(29,95)"/>
<path d="M0 0 C13.53 0 27.06 0 41 0 C41 1.65 41 3.3 41 5 C27.47 5 13.94 5 0 5 C0 3.35 0 1.7 0 0 Z " fill="#98CBFF" transform="translate(55,136)"/>
</svg>
